<svg width="73" height="73" viewBox="0 0 73 73" fill="none" xmlns="http://www.w3.org/2000/svg">
<circle cx="36.5" cy="36.5" r="36.5" fill="white"/>
<rect x="16.3066" y="28.4795" width="40.4818" height="30.6505" rx="6" fill="#FCE180"/>
<path d="M19.1005 17.5145C19.9156 15.7385 21.6906 14.6 23.6448 14.6H49.1839C51.1137 14.6 52.8712 15.7106 53.6997 17.4536L58.0176 26.5379C59.5946 29.8556 57.1753 33.6843 53.5018 33.6843H19.4757C15.8314 33.6843 13.4114 29.911 14.9314 26.5988L19.1005 17.5145Z" fill="#F8C301"/>
<path d="M30.186 49.0939C30.186 46.3324 32.4246 44.0939 35.186 44.0939H37.9089C40.6703 44.0939 42.9089 46.3324 42.9089 49.0939V59.13H30.186V49.0939Z" fill="black"/>
<rect x="31.3428" y="51.6119" width="1.73494" height="1.15662" rx="0.578312" fill="#7B7B7B"/>
<rect x="19.6982" y="39.3891" width="6.51805" height="7.09636" rx="2.5" fill="#9DD6FF" stroke="black"/>
<path d="M22.957 39.1783V46.6963" stroke="black"/>
<path d="M26.7158 42.9373L19.1978 42.9373" stroke="black"/>
<rect x="46.3003" y="39.389" width="6.51805" height="7.09636" rx="2.5" fill="#9DD6FF" stroke="black"/>
<path d="M49.5596 39.1783V46.6963" stroke="black"/>
<path d="M53.3184 42.9373L45.8003 42.9373" stroke="black"/>
</svg>
