<svg width="24" height="14" viewBox="0 0 24 14" fill="none" xmlns="http://www.w3.org/2000/svg">
<path d="M22.2645 3.0006L22.264 3.00112L12.4645 12.8298C12.4644 12.8299 12.4643 12.83 12.4642 12.8301C12.3928 12.9014 12.3284 12.9393 12.272 12.9593L12.2696 12.9602C12.1917 12.9882 12.1036 13.0042 12.0014 13.0042C11.8992 13.0042 11.8111 12.9882 11.7333 12.9602L11.7309 12.9594C11.6744 12.9393 11.6099 12.9013 11.5383 12.8298L1.70915 3.0006C1.53683 2.82827 1.44727 2.61797 1.44727 2.33332C1.44727 2.0591 1.53935 1.83584 1.73832 1.63687L1.38646 1.28501L1.73832 1.63687C1.94253 1.43266 2.15799 1.34582 2.4056 1.34582C2.65321 1.34582 2.86867 1.43266 3.07288 1.63687L3.42643 1.28332L3.07288 1.63687L11.6479 10.2119L12.0014 10.5654L12.355 10.2119L20.93 1.63687C21.1049 1.46196 21.3114 1.37498 21.5821 1.37498C21.8436 1.37498 22.0631 1.4646 22.2645 1.66604C22.4688 1.87025 22.5556 2.08571 22.5556 2.33332C22.5556 2.58093 22.4688 2.79639 22.2645 3.0006Z" fill="black" stroke="black"/>
</svg>
