<svg width="28" height="16" viewBox="0 0 28 16" fill="none" xmlns="http://www.w3.org/2000/svg">
<path d="M1.45987 12.7806L1.46039 12.7801L13.3599 0.845187C13.3599 0.845142 13.36 0.845096 13.36 0.84505C13.4565 0.748599 13.548 0.69295 13.6337 0.662602L13.6361 0.661743C13.7431 0.623225 13.8625 0.60205 13.998 0.60205C14.1335 0.60205 14.2529 0.623225 14.3599 0.66175L14.3623 0.662596C14.448 0.692965 14.5396 0.748654 14.6361 0.845187L26.5715 12.7806C26.8022 13.0113 26.9209 13.2945 26.9209 13.6666C26.9209 14.0284 26.7976 14.3266 26.5361 14.5881C26.2694 14.8548 25.981 14.9729 25.6501 14.9729C25.3191 14.9729 25.0307 14.8548 24.764 14.5881L14.3515 4.17558L13.998 3.82203L13.6444 4.17558L3.23193 14.5881C2.99868 14.8213 2.72036 14.9375 2.36431 14.9375C2.01735 14.9375 1.72381 14.8166 1.45987 14.5527C1.19316 14.286 1.07507 13.9976 1.07507 13.6666C1.07507 13.3357 1.19316 13.0473 1.45987 12.7806Z" fill="white" stroke="white"/>
</svg>
