<svg width="73" height="14" viewBox="0 0 73 14" fill="none" xmlns="http://www.w3.org/2000/svg">
<path d="M13 0V2.352H16.4198V14H18.5802V2.35565H22V0H13Z" fill="white"/>
<path d="M27.246 11.648V7.63061H33.1632V5.27739H27.246V2.35565H34.435V0H25V14H34.6268L35 11.6456L27.246 11.648Z" fill="white"/>
<path d="M44.9352 0.27677V8.6145L37 0V13.5387H39.0648V5.40511L47 14V0.27677H44.9352Z" fill="white"/>
<path d="M63 14H59.2138L59.1634 13.8769H59.1611L59.2138 14H56.8106L58.6917 12.8403L58.7031 12.8342H58.7192L55.4885 5.18921L52.4036 12.6049L52.3852 12.6484L52.298 12.8511L52.3003 12.8535L54.163 14H48L49.8776 12.8451L55.4885 0L61.1132 12.8391L63 14Z" fill="white"/>
<path d="M15 14H11.2138L11.1634 13.8769H11.1611L11.2138 14H8.81063L10.6917 12.8403L10.7031 12.8342H10.7192L7.48738 5.18921L4.4036 12.6049L4.38523 12.6484L4.29801 12.8511L4.30031 12.8535L6.16297 14H0L1.87758 12.8451L7.48738 0L13.1132 12.8391L15 14Z" fill="white"/>
<path d="M71.2625 6.90305C70.4149 6.32309 69.3297 5.97488 68.3004 5.60865C66.3859 4.96866 65.2458 4.50517 65.2458 3.55779C65.2458 3.22879 65.3749 2.99705 65.6696 2.78451C66.1106 2.49514 66.8451 2.31983 67.7487 2.31983C69.7352 2.31983 71.2979 3.36447 71.3162 3.36447L72.5122 1.41087C72.4197 1.35443 70.3977 0 67.7487 0C64.2703 0 63.0388 1.83713 63.0388 3.55779C63.0303 4.20786 63.2026 4.84639 63.5346 5.39492C63.8542 5.86816 64.2609 6.26912 64.7306 6.57405C65.5771 7.13599 66.6246 7.48301 67.6184 7.83122C69.605 8.48803 70.801 8.97312 70.801 10.0358C70.801 11.1164 69.5501 11.6796 68.3004 11.6796C65.7793 11.6796 64.9146 10.3252 64.8963 10.2675V10.2867L63 11.4659C63.0743 11.6015 63.4421 12.2211 64.2886 12.8203C64.7911 13.1788 65.3438 13.4526 65.9267 13.632C66.6917 13.8856 67.4903 14.0096 68.2924 13.9994C68.8896 14.0074 69.4847 13.9228 70.0585 13.7485C70.5861 13.5882 71.0834 13.3336 71.5287 12.9956C72.4859 12.2595 73 11.1945 73 10.0358C73.0045 8.74018 72.4162 7.68113 71.2625 6.90305Z" fill="white"/>
</svg>
