<svg width="22" height="22" viewBox="0 0 22 22" fill="none" xmlns="http://www.w3.org/2000/svg">
<path d="M12.9458 14.5751L12.8824 14.5117L12.8125 14.5678C12.1967 15.0611 11.4878 15.4522 10.6849 15.7409C9.88393 16.0288 9.03085 16.1731 8.125 16.1731C5.88011 16.1731 3.98408 15.3959 2.43076 13.8403C0.876593 12.284 0.1 10.3848 0.1 8.13656C0.1 5.88836 0.876593 3.98914 2.43076 2.43277C3.98408 0.877239 5.88011 0.1 8.125 0.1C10.3699 0.1 12.2663 0.877228 13.8205 2.43275C15.3738 3.98912 16.15 5.88834 16.15 8.13656C16.15 9.04374 16.0059 9.89808 15.7184 10.7003C15.4301 11.5044 15.0395 12.2143 14.5469 12.8309L14.4911 12.9007L14.5542 12.964L21.5855 20.0052C21.7953 20.2154 21.9 20.4713 21.9 20.7795C21.9 21.0851 21.7868 21.3522 21.5542 21.5851C21.3456 21.794 21.0803 21.9 20.75 21.9C20.4197 21.9 20.1544 21.794 19.9458 21.5851L12.9458 14.5751ZM12.1807 12.1979L12.1808 12.1979C13.2931 11.0832 13.85 9.72744 13.85 8.13656C13.85 6.54567 13.2931 5.18995 12.1808 4.07525L12.1807 4.0752C11.0676 2.96135 9.71375 2.40356 8.125 2.40356C6.53625 2.40356 5.18239 2.96135 4.06927 4.0752L4.06921 4.07525C2.95694 5.18995 2.4 6.54567 2.4 8.13656C2.4 9.72744 2.95694 11.0832 4.06921 12.1979L4.06927 12.1979C5.18239 13.3118 6.53625 13.8696 8.125 13.8696C9.71375 13.8696 11.0676 13.3118 12.1807 12.1979Z" fill="white" stroke="#4CA95A" stroke-width="0.2"/>
</svg>
