<svg width="29" height="28" viewBox="0 0 29 28" fill="none" xmlns="http://www.w3.org/2000/svg">
<path fill-rule="evenodd" clip-rule="evenodd" d="M18.2534 19.329C16.0093 21.0603 13.1639 21.8962 10.3015 21.665C7.43909 21.4338 4.77702 20.1531 2.86202 18.0859C0.947021 16.0187 -0.0755411 13.322 0.00435237 10.5495C0.0842458 7.77712 1.26053 5.13946 3.29162 3.17829C5.3227 1.21713 8.05441 0.0813454 10.9257 0.00420253C13.797 -0.0729404 16.5899 0.914418 18.7307 2.76349C20.8716 4.61256 22.198 7.18298 22.4374 9.94683C22.6769 12.7107 21.8112 15.4582 20.0182 17.625L28.6026 25.9122C28.7253 26.0226 28.8237 26.1557 28.8919 26.3036C28.9601 26.4515 28.9968 26.6111 28.9998 26.773C29.0028 26.9349 28.9719 27.0957 28.9091 27.2458C28.8463 27.396 28.7528 27.5324 28.6343 27.6469C28.5157 27.7613 28.3744 27.8516 28.219 27.9122C28.0635 27.9729 27.8969 28.0027 27.7293 27.9998C27.5616 27.997 27.3963 27.9615 27.2431 27.8956C27.0899 27.8297 26.9521 27.7347 26.8377 27.6162L18.2534 19.329ZM5.05715 16.8179C3.83516 15.6379 3.00288 14.1346 2.6655 12.4979C2.32812 10.8613 2.50077 9.16481 3.16165 7.62289C3.82252 6.08098 4.94195 4.76283 6.37846 3.83505C7.81497 2.90726 9.50408 2.41148 11.2323 2.41035C12.9606 2.40923 14.6504 2.90282 16.0882 3.82874C17.526 4.75465 18.6472 6.07134 19.3102 7.6124C19.9733 9.15345 20.1483 10.8497 19.8132 12.4868C19.4781 14.1239 18.6479 15.6283 17.4276 16.8099L17.4192 16.8179L17.4109 16.8244C15.7711 18.404 13.549 19.2906 11.2327 19.2894C8.91631 19.2882 6.69518 18.3993 5.05715 16.8179Z" fill="black"/>
</svg>
