<svg width="65" height="65" viewBox="0 0 65 65" fill="none" xmlns="http://www.w3.org/2000/svg">
<circle cx="32.5" cy="32.5" r="31.5" stroke="#4CA95A" stroke-width="2"/>
<path d="M17.341 17.3406C17.9153 16.7665 18.6941 16.444 19.5062 16.444C20.3182 16.444 21.0971 16.7665 21.6714 17.3406L32.5004 28.1696L43.3294 17.3406C43.907 16.7828 44.6806 16.4741 45.4835 16.4811C46.2865 16.488 47.0546 16.8101 47.6224 17.3779C48.1902 17.9457 48.5123 18.7139 48.5193 19.5168C48.5263 20.3198 48.2176 21.0934 47.6597 21.671L36.8307 32.5L47.6597 43.329C48.2176 43.9066 48.5263 44.6802 48.5193 45.4832C48.5123 46.2861 48.1902 47.0543 47.6224 47.6221C47.0546 48.1899 46.2865 48.512 45.4835 48.5189C44.6806 48.5259 43.907 48.2172 43.3294 47.6594L32.5004 36.8304L21.6714 47.6594C21.0938 48.2172 20.3202 48.5259 19.5172 48.5189C18.7142 48.512 17.9461 48.1899 17.3783 47.6221C16.8105 47.0543 16.4884 46.2861 16.4814 45.4832C16.4745 44.6802 16.7831 43.9066 17.341 43.329L28.17 32.5L17.341 21.671C16.7669 21.0967 16.4443 20.3179 16.4443 19.5058C16.4443 18.6937 16.7669 17.9149 17.341 17.3406Z" fill="#4CA95A"/>
</svg>
