<svg width="22" height="22" viewBox="0 0 22 22" fill="none" xmlns="http://www.w3.org/2000/svg">
<path d="M11.0364 1V7.17613" stroke="white" stroke-width="1.71429" stroke-linecap="round" stroke-linejoin="round"/>
<path d="M13.3523 17.2123H17.2124" stroke="white" stroke-width="1.71429" stroke-linecap="round" stroke-linejoin="round"/>
<path d="M1 7.17615H21.0724V19.5284C21.0724 19.9379 20.9097 20.3306 20.6202 20.6202C20.3306 20.9098 19.9379 21.0724 19.5284 21.0724H2.54403C2.13453 21.0724 1.7418 20.9098 1.45224 20.6202C1.16267 20.3306 1 19.9379 1 19.5284V7.17615Z" stroke="white" stroke-width="1.71429" stroke-linecap="round" stroke-linejoin="round"/>
<path d="M1 7.17613L3.31605 2.71387C3.56573 2.21094 3.94782 1.7856 4.4212 1.48361C4.89458 1.18163 5.44134 1.01443 6.00266 1H16.0697C16.6443 1.0003 17.2073 1.16087 17.6955 1.46364C18.1838 1.76641 18.5779 2.19938 18.8336 2.71387L21.0724 7.17613" stroke="white" stroke-width="1.71429" stroke-linecap="round" stroke-linejoin="round"/>
</svg>
